<?xml version="1.0" encoding="utf-8"?>
<!-- Generator: Adobe Illustrator 25.4.1, SVG Export Plug-In . SVG Version: 6.00 Build 0)  -->
<svg version="1.1" id="Слой_1" xmlns="http://www.w3.org/2000/svg" xmlns:xlink="http://www.w3.org/1999/xlink" x="0px" y="0px"
	 viewBox="0 0 800 800" style="enable-background:new 0 0 800 800;" xml:space="preserve">
<style type="text/css">
	.st0{fill-rule:evenodd;clip-rule:evenodd;fill:#373B72;}
</style>
<g id="SVGRepo_bgCarrier">
</g>
<g id="SVGRepo_tracerCarrier">
</g>
<g id="SVGRepo_iconCarrier">
	<path class="st0" d="M401.9,41.7h-3.8c-76.9,0-137.2,0-184.3,6.3c-48.2,6.5-86.2,20-116,49.8s-43.3,67.8-49.8,116
		c-6.3,47-6.3,107.4-6.3,184.3v3.8c0,76.9,0,137.2,6.3,184.3c6.5,48.2,20,86.2,49.8,116c29.8,29.8,67.8,43.3,116,49.8
		c47,6.3,107.4,6.3,184.3,6.3h3.8c76.9,0,137.2,0,184.3-6.3c48.2-6.5,86.2-20,116-49.8c29.8-29.8,43.3-67.8,49.8-116
		c6.3-47,6.3-107.4,6.3-184.3v-3.8c0-76.9,0-137.2-6.3-184.3c-6.5-48.2-20-86.2-49.8-116C672.4,68,634.4,54.5,586.2,48
		C539.2,41.7,478.9,41.7,401.9,41.7z M133.2,133.2c19-19,44.7-29.9,87.3-35.6c43.3-5.8,100.3-5.9,179.5-5.9
		c79.3,0,136.2,0.1,179.5,5.9c42.6,5.7,68.3,16.6,87.3,35.6c19,19,29.9,44.7,35.6,87.3c5.8,43.3,5.9,100.3,5.9,179.5
		c0,79.3-0.1,136.2-5.9,179.5c-5.7,42.6-16.6,68.3-35.6,87.3c-19,19-44.7,29.9-87.3,35.6c-43.3,5.8-100.3,5.9-179.5,5.9
		c-79.3,0-136.2-0.1-179.5-5.9c-42.6-5.7-68.3-16.6-87.3-35.6c-19-19-29.9-44.7-35.6-87.3c-5.8-43.3-5.9-100.3-5.9-179.5
		c0-79.3,0.1-136.2,5.9-179.5C103.3,177.8,114.2,152.1,133.2,133.2z"/>
</g>
</svg>
